<svg width="58" height="76" viewBox="0 0 58 76" fill="none" xmlns="http://www.w3.org/2000/svg">
<path d="M33.8333 2.90052e-07C31.1599 3.22139e-07 29 2.12266 29 4.75L29 21.375L38.6667 21.375L38.6667 4.75C38.6667 2.12266 36.5068 2.57965e-07 33.8333 2.90052e-07ZM53.1667 9.5C53.1667 6.87266 51.0068 4.75 48.3333 4.75C45.6599 4.75 43.5 6.87266 43.5 9.5L43.5 21.375L53.1667 21.375L53.1667 9.5ZM24.1667 9.5C24.1667 6.87266 22.0068 4.75 19.3333 4.75C16.6599 4.75 14.5 6.87266 14.5 9.5L14.5 23.75C14.5 26.3773 16.6599 28.5 19.3333 28.5C22.0068 28.5 24.1667 26.3773 24.1667 23.75L24.1667 9.5ZM9.66666 19C9.66666 16.3727 7.50677 14.25 4.83333 14.25C2.15989 14.25 1.96507e-07 16.3727 2.28041e-07 19L3.42061e-07 28.5C3.73595e-07 31.1273 2.15989 33.25 4.83333 33.25C7.50677 33.25 9.66666 31.1273 9.66666 28.5L9.66666 19ZM24.1667 32.0625L24.1667 31.9734C22.7469 32.775 21.1005 33.25 19.3333 33.25C17.3396 33.25 15.4969 32.6563 13.9562 31.6469C12.6422 35.343 9.04739 38 4.83333 38C3.06614 38 1.41979 37.5398 4.4076e-07 36.7234L4.56082e-07 38C5.49258e-07 45.7633 3.79115 52.6656 9.66666 57L9.66666 71.25C9.66667 73.8773 11.8266 76 14.5 76L38.6667 76C41.3401 76 43.5 73.8773 43.5 71.25L43.5 59.6125C46.113 58.4398 48.5146 56.8219 50.5839 54.7883L52.3359 53.0664C55.9609 49.5039 58 44.6648 58 39.6328L58 35.625C58 30.3852 53.6651 26.125 48.3333 26.125L35.0417 26.125C31.7036 26.125 29 28.782 29 32.0625C29 35.343 31.7036 38 35.0417 38L43.5 38C44.8292 38 45.9167 39.0687 45.9167 40.375C45.9167 41.6813 44.8292 42.75 43.5 42.75L35.0417 42.75C29.0302 42.75 24.1667 37.9703 24.1667 32.0625Z" fill="white"/>
</svg>
